<?xml version="1.0" encoding="UTF-8" standalone="no"?>
<svg
   shape-rendering="geometricPrecision"
   text-rendering="geometricPrecision"
   image-rendering="optimizeQuality"
   fill-rule="evenodd"
   clip-rule="evenodd"
   viewBox="0 0 512 512"
   version="1.1"
   id="svg3"
   sodipodi:docname="discord-icon.svg"
   inkscape:export-filename="discord-icon.svg"
   inkscape:export-xdpi="12"
   inkscape:export-ydpi="12"
   inkscape:version="1.4 (86a8ad7, 2024-10-11)"
   xmlns:inkscape="http://www.inkscape.org/namespaces/inkscape"
   xmlns:sodipodi="http://sodipodi.sourceforge.net/DTD/sodipodi-0.dtd"
   xmlns="http://www.w3.org/2000/svg"
   xmlns:svg="http://www.w3.org/2000/svg">
  <defs
     id="defs3" />
  <sodipodi:namedview
     id="namedview3"
     pagecolor="#505050"
     bordercolor="#ffffff"
     borderopacity="1"
     inkscape:showpageshadow="0"
     inkscape:pageopacity="0"
     inkscape:pagecheckerboard="1"
     inkscape:deskcolor="#505050"
     inkscape:zoom="0.81738281"
     inkscape:cx="221.43847"
     inkscape:cy="384.76464"
     inkscape:window-width="1920"
     inkscape:window-height="1017"
     inkscape:window-x="-8"
     inkscape:window-y="-8"
     inkscape:window-maximized="1"
     inkscape:current-layer="svg3" />
  <path
     fill="#5865F2"
     d="M256 0c141.385 0 256 114.615 256 256S397.385 512 256 512 0 397.385 0 256 114.615 0 256 0z"
     id="path1" />
  <g
     data-name="图层 2"
     id="g3"
     inkscape:export-filename="discord-icon.svg"
     inkscape:export-xdpi="12"
     inkscape:export-ydpi="12">
    <g
       data-name="Discord Logos"
       id="g2">
      <path
         fill="#fff"
         fill-rule="nonzero"
         d="M360.932 160.621a250.49 250.49 0 00-62.384-19.182 174.005 174.005 0 00-7.966 16.243 232.677 232.677 0 00-34.618-2.602c-11.569 0-23.196.879-34.623 2.58-2.334-5.509-5.044-10.972-7.986-16.223a252.55 252.55 0 00-62.397 19.222c-39.483 58.408-50.183 115.357-44.833 171.497a251.546 251.546 0 0076.502 38.398c6.169-8.328 11.695-17.193 16.386-26.418a161.718 161.718 0 01-25.813-12.318c2.165-1.569 4.281-3.186 6.325-4.756 23.912 11.23 50.039 17.088 76.473 17.088 26.436 0 52.563-5.858 76.475-17.09 2.069 1.689 4.186 3.306 6.325 4.756a162.642 162.642 0 01-25.859 12.352 183.919 183.919 0 0016.386 26.396 250.495 250.495 0 0076.553-38.391l-.006.006c6.278-65.103-10.724-121.529-44.94-171.558zM205.779 297.63c-14.908 0-27.226-13.53-27.226-30.174 0-16.645 11.889-30.294 27.179-30.294 15.289 0 27.511 13.649 27.249 30.294-.261 16.644-12.007 30.174-27.202 30.174zm100.439 0c-14.933 0-27.202-13.53-27.202-30.174 0-16.645 11.889-30.294 27.202-30.294 15.313 0 27.44 13.649 27.178 30.294-.261 16.644-11.984 30.174-27.178 30.174z"
         data-name="Discord Logo - Large - White"
         id="path2" />
    </g>
  </g>
</svg>
