<?xml version="1.0" encoding="UTF-8" standalone="no"?>
<!-- Created with Inkscape (http://www.inkscape.org/) -->

<svg
   width="8.4666662mm"
   height="10.583333mm"
   viewBox="0 0 8.4666662 10.583333"
   version="1.1"
   id="svg1"
   xml:space="preserve"
   inkscape:export-filename="Note.png"
   inkscape:export-xdpi="4800.0005"
   inkscape:export-ydpi="4800.0005"
   inkscape:version="1.4 (86a8ad7, 2024-10-11)"
   sodipodi:docname="Note.svg"
   xmlns:inkscape="http://www.inkscape.org/namespaces/inkscape"
   xmlns:sodipodi="http://sodipodi.sourceforge.net/DTD/sodipodi-0.dtd"
   xmlns="http://www.w3.org/2000/svg"
   xmlns:svg="http://www.w3.org/2000/svg"><sodipodi:namedview
     id="namedview1"
     pagecolor="#505050"
     bordercolor="#ffffff"
     borderopacity="1"
     inkscape:showpageshadow="0"
     inkscape:pageopacity="0"
     inkscape:pagecheckerboard="1"
     inkscape:deskcolor="#505050"
     inkscape:document-units="mm"
     inkscape:zoom="16"
     inkscape:cx="12.40625"
     inkscape:cy="28.71875"
     inkscape:window-width="1920"
     inkscape:window-height="1017"
     inkscape:window-x="-8"
     inkscape:window-y="-8"
     inkscape:window-maximized="1"
     inkscape:current-layer="layer1" /><defs
     id="defs1" /><g
     inkscape:label="Layer 1"
     inkscape:groupmode="layer"
     id="layer1"
     transform="translate(-201.87709,-184.67917)"><path
       style="display:inline;opacity:1;fill:#ffffff;stroke:#000000;stroke-width:1.05833;stroke-linecap:round;stroke-linejoin:round;stroke-miterlimit:5;stroke-dasharray:none;stroke-opacity:1;paint-order:stroke fill markers"
       d="m 209.81459,189.97084 c 0,1.36382 -0.87277,1.83083 -1.83854,2.38843 -0.3572,0.20624 -1.20178,2.37407 -1.86563,2.37407 -1.71649,0 -2.20056,-0.26158 -2.38125,-0.52917 -0.18069,-0.26758 -0.10102,-0.79375 0.13229,-0.79375 0.23332,0 2.7e-4,0.7955 0.97276,0.7955 0.55942,0 0.74704,-0.32776 0.74704,-0.53092 0,-0.20315 -0.54897,-1.31991 -1.10979,-1.31991 -1.25726,-0.1623 -2.0437,-1.16463 -2.06521,-2.38422 0,-2.54123 2.66222,-2.64585 3.70416,-2.64587 1.99954,-2e-5 3.70417,0.46197 3.70417,2.64584 z"
       id="path1"
       sodipodi:nodetypes="csszzczszzc" /><path
       style="display:inline;opacity:1;fill:#000000;fill-opacity:1;stroke:none;stroke-width:1.05833;stroke-linecap:round;stroke-linejoin:round;stroke-miterlimit:5;stroke-dasharray:none;stroke-opacity:1;paint-order:stroke fill markers"
       d="m 206.63959,186.97813 v -0.68774 c 0,0 -0.40378,0.29268 -0.79375,0.29086 -0.38997,-0.002 -0.6201,0.0927 -1.11923,-0.42203 -0.49913,-0.51472 -0.54914,-1.43005 -0.35719,-1.43005 0.19195,0 0.41302,0.15334 0.68888,0.4292 0.27586,0.27586 0.45182,0.38109 0.64698,0.38109 0.19516,0 0.40619,-0.25593 0.55604,-0.40578 0.14985,-0.14985 0.64285,-0.233 0.64285,-0.0614 v 1.90583 z"
       id="path2"
       sodipodi:nodetypes="cczzzzzzscc" /><circle
       style="display:inline;fill:#000000;fill-opacity:1;fill-rule:evenodd;stroke-width:0.264583"
       id="path3"
       cx="206.37503"
       cy="189.17709"
       r="0.52916664" /><circle
       style="display:inline;fill:#000000;fill-opacity:1;fill-rule:evenodd;stroke-width:0.264583"
       id="circle3"
       cx="208.75626"
       cy="189.17709"
       r="0.52916664" /><circle
       style="display:inline;fill:#ff84ff;fill-opacity:1;fill-rule:evenodd;stroke-width:0.264583"
       id="circle4"
       cx="205.31668"
       cy="189.97084"
       r="0.52916664" /><path
       id="circle5"
       style="display:inline;fill:#ff84ff;fill-opacity:1;fill-rule:evenodd;stroke-width:0.264583"
       d="m 209.55001,189.44167 a 0.52916664,0.52916664 0 0 0 -0.52917,0.52917 0.52916664,0.52916664 0 0 0 0.52917,0.52916 0.52916664,0.52916664 0 0 0 0.22324,-0.0491 c 0.0268,-0.14692 0.0413,-0.30599 0.0413,-0.48007 0,-0.16875 -0.0113,-0.32614 -0.031,-0.47491 a 0.52916664,0.52916664 0 0 0 -0.23357,-0.0543 z" /><path
       style="fill:none;fill-opacity:1;stroke:#000000;stroke-width:0.529167;stroke-linecap:round;stroke-linejoin:round;stroke-miterlimit:5;stroke-dasharray:none;stroke-opacity:1;paint-order:stroke fill markers"
       d="m 206.37501,190.5 c 0,0 0.11305,0.26459 0.92604,0.26459 0.81299,0 0.92604,-0.26459 0.92604,-0.26459"
       id="path7"
       sodipodi:nodetypes="czc" /></g></svg>
